<svg xmlns="http://www.w3.org/2000/svg" viewBox="0 0 500 500"><g id="freepik--background-complete--inject-2"><rect y="382.4" width="500" height="0.25" style="fill:#ebebeb"></rect><rect x="416.78" y="398.49" width="33.12" height="0.25" style="fill:#ebebeb"></rect><rect x="322.53" y="401.21" width="8.69" height="0.25" style="fill:#ebebeb"></rect><rect x="396.59" y="389.21" width="19.19" height="0.25" style="fill:#ebebeb"></rect><rect x="52.46" y="390.89" width="43.19" height="0.25" style="fill:#ebebeb"></rect><rect x="104.56" y="390.89" width="6.33" height="0.25" style="fill:#ebebeb"></rect><rect x="131.47" y="395.11" width="93.68" height="0.25" style="fill:#ebebeb"></rect><path d="M237,337.8H43.91a5.71,5.71,0,0,1-5.7-5.71V60.66A5.71,5.71,0,0,1,43.91,55H237a5.71,5.71,0,0,1,5.71,5.71V332.09A5.71,5.71,0,0,1,237,337.8ZM43.91,55.2a5.46,5.46,0,0,0-5.45,5.46V332.09a5.46,5.46,0,0,0,5.45,5.46H237a5.47,5.47,0,0,0,5.46-5.46V60.66A5.47,5.47,0,0,0,237,55.2Z" style="fill:#ebebeb"></path><path d="M453.31,337.8H260.21a5.72,5.72,0,0,1-5.71-5.71V60.66A5.72,5.72,0,0,1,260.21,55h193.1A5.71,5.71,0,0,1,459,60.66V332.09A5.71,5.71,0,0,1,453.31,337.8ZM260.21,55.2a5.47,5.47,0,0,0-5.46,5.46V332.09a5.47,5.47,0,0,0,5.46,5.46h193.1a5.47,5.47,0,0,0,5.46-5.46V60.66a5.47,5.47,0,0,0-5.46-5.46Z" style="fill:#ebebeb"></path><polygon points="370.93 304.31 370.93 321.82 378.33 327.2 343.8 327.2 354.83 323.11 354.83 305.54 370.93 304.31" style="fill:#e0e0e0"></polygon><path d="M277.79,326.7v55.15H431.92V326.7Zm2.78,3.57H401.21v18H280.57Z" style="fill:#e0e0e0"></path><path d="M277.79,326.7v55.15H404.92V326.7Zm2.78,3.57H401.21v18H280.57Z" style="fill:#ebebeb"></path><rect x="280.57" y="330.28" width="24.87" height="18.02" transform="translate(586 678.57) rotate(180)" style="fill:#e0e0e0"></rect><rect x="370.45" y="339.29" width="30.76" height="9.01" transform="translate(771.66 687.59) rotate(180)" style="fill:#e0e0e0"></rect><rect x="345.02" y="342.95" width="23.16" height="5.35" transform="translate(713.2 691.25) rotate(180)" style="fill:#e0e0e0"></rect><rect x="317.61" y="337.35" width="22.06" height="10.95" transform="translate(657.28 685.65) rotate(180)" style="fill:#e0e0e0"></rect><polygon points="379.35 352.23 380.01 354.38 388.86 354.38 389.52 352.23 401.21 352.23 401.21 376.15 362.41 376.15 362.41 352.23 379.35 352.23" style="fill:#e0e0e0"></polygon><polygon points="333.24 352.23 333.9 354.38 342.75 354.38 343.41 352.23 360.35 352.23 360.35 376.15 321.55 376.15 321.55 352.23 333.24 352.23" style="fill:#e0e0e0"></polygon><polygon points="297.62 352.23 298.28 354.38 307.13 354.38 307.79 352.23 319.48 352.23 319.48 376.15 280.68 376.15 280.68 352.23 297.62 352.23" style="fill:#e0e0e0"></polygon><rect x="295.98" y="240.23" width="123.37" height="74.55" rx="4.35" transform="translate(715.34 555.01) rotate(180)" style="fill:#e0e0e0"></rect><rect x="293.08" y="240.23" width="123.37" height="74.55" rx="4.35" transform="translate(709.54 555.01) rotate(180)" style="fill:#e6e6e6"></rect><rect x="321.12" y="219.44" width="67.3" height="116.12" transform="translate(632.27 -77.26) rotate(90)" style="fill:#f0f0f0"></rect><path d="M190.53,261.76H101A17.6,17.6,0,0,0,83.4,279.35v69.92H208.11V279.35A17.59,17.59,0,0,0,190.53,261.76Z" style="fill:#e6e6e6"></path><path d="M234.58,313.58h-16A10.45,10.45,0,0,0,208.11,324v57.82H245V324A10.45,10.45,0,0,0,234.58,313.58Z" style="fill:#e0e0e0"></path><path d="M234.58,313.58h-.34A10.45,10.45,0,0,0,223.79,324v57.82H245V324A10.45,10.45,0,0,0,234.58,313.58Z" style="fill:#ebebeb"></path><rect x="96.45" y="355.29" width="122.88" height="26.56" style="fill:#e6e6e6"></rect><rect x="90.37" y="331" width="139.75" height="27.87" rx="10.62" style="fill:#f5f5f5"></rect><rect x="90.57" y="331" width="35.95" height="27.87" rx="10.62" style="fill:#e0e0e0;isolation:isolate"></rect><path d="M99.6,313.58h-16A10.45,10.45,0,0,0,73.13,324v57.82h36.92V324A10.45,10.45,0,0,0,99.6,313.58Z" style="fill:#e0e0e0"></path><path d="M99.6,313.58h-.33A10.45,10.45,0,0,0,88.82,324v57.82h21.23V324A10.45,10.45,0,0,0,99.6,313.58Z" style="fill:#f0f0f0"></path><rect x="76.7" y="106.96" width="118.63" height="122.58" style="fill:#ebebeb"></rect><rect x="80.85" y="106.96" width="118.63" height="122.58" style="fill:#f0f0f0"></rect><rect x="83.84" y="109.87" width="112.5" height="116.83" style="fill:#e0e0e0"></rect><rect x="83.84" y="109.87" width="109.69" height="116.83" style="fill:#f5f5f5"></rect><rect x="137.59" y="109.87" width="2.23" height="116.83" style="fill:#ebebeb"></rect><polygon points="152.6 109.87 183.86 226.69 186.86 226.69 155.6 109.87 152.6 109.87" style="fill:#fff"></polygon><rect x="138.86" y="108.07" width="1.91" height="120.87" style="fill:#f0f0f0"></rect><polygon points="163.94 109.87 193.53 220.43 193.53 159.66 180.21 109.87 163.94 109.87" style="fill:#fff"></polygon><polygon points="83.84 120.47 83.84 131.68 109.27 226.69 112.27 226.69 83.84 120.47" style="fill:#fff"></polygon><polygon points="83.84 143.11 83.84 203.88 89.94 226.69 106.2 226.69 83.84 143.11" style="fill:#fff"></polygon><rect x="331.91" y="113.95" width="71.83" height="87.4" style="fill:#e6e6e6"></rect><polygon points="387.3 179.7 349.56 142.6 390.39 135.86 387.3 179.7" style="fill:#e0e0e0"></polygon><polygon points="350.47 170.91 348.6 142.46 377.02 149.44 379.08 171.21 350.47 170.91" style="fill:#f0f0f0"></polygon><circle cx="387.65" cy="130.88" r="11.47" transform="translate(20.99 312.44) rotate(-45)" style="fill:#fafafa"></circle><path d="M354.18,181.05a5.57,5.57,0,1,0-5.57,5.56A5.56,5.56,0,0,0,354.18,181.05Z" style="fill:#e0e0e0"></path><polygon points="349.94 190.83 366 181.05 352.5 169.92 349.94 190.83" style="fill:#f5f5f5"></polygon><rect x="368.91" y="125.07" width="3.16" height="69.79" transform="translate(740.98 319.92) rotate(180)" style="fill:#e0e0e0"></rect><rect x="338.65" y="125.07" width="4.09" height="66.7" transform="translate(681.39 316.84) rotate(180)" style="fill:#ebebeb"></rect><rect x="375.65" y="171.21" width="20.88" height="20.88" transform="translate(772.17 363.29) rotate(180)" style="fill:#ebebeb"></rect></g><g id="freepik--Shadow--inject-2"><ellipse id="freepik--path--inject-2" cx="250" cy="416.24" rx="193.89" ry="11.32" style="fill:#f5f5f5"></ellipse></g><g id="freepik--speech-bubble--inject-2"><path d="M318.63,133.72s1.66,9.14,13.74,13.27c0,0-6.87-6.64-6.87-13.27Z" style="fill:#407BFF"></path><path d="M318.63,133.72s1.66,9.14,13.74,13.27c0,0-6.87-6.64-6.87-13.27Z" style="fill:#fafafa;opacity:0.6000000000000001"></path><rect x="306.13" y="104.16" width="32.45" height="32.45" rx="2.72" style="fill:#407BFF"></rect><rect x="306.13" y="104.16" width="32.45" height="32.45" rx="2.72" style="fill:#fafafa;opacity:0.6000000000000001"></rect><path d="M315.66,115.49c1.77-2.77,5-1.64,6.73.56,1.73-2.15,5.05-3.18,6.73-.35,2.84,4.78-3.23,9.06-6.09,10.74l-.81.47-.8-.5C318.61,124.65,312.68,120.18,315.66,115.49Z" style="fill:#407BFF"></path></g><g id="freepik--Character--inject-2"><polygon points="330.59 409.57 323.69 407.33 327.98 391.07 334.87 393.31 330.59 409.57" style="fill:#e4897b"></polygon><path d="M323.59,406.42l7.75,2.51a.52.52,0,0,1,.35.64l-1.61,6.25a1.29,1.29,0,0,1-1.6.84c-2.69-.92-3.92-1.5-7.33-2.61-2.1-.68-11.08-3.35-14-4.29s-1.89-3.78-.58-3.64c5.88.63,13.22,1.24,15.66.34A2.1,2.1,0,0,1,323.59,406.42Z" style="fill:#263238"></path><polygon points="334.88 393.32 327.98 391.08 325.77 399.46 332.67 401.7 334.88 393.32" style="opacity:0.2"></polygon><path d="M351.68,228.69s-9.79,59-12.69,79.61c-3.18,22.54-15.66,88.48-15.66,88.48l12.8,3.53s18.28-63.89,23.46-85.81c5.62-23.78,18-85.81,18-85.81Z" style="fill:#407BFF"></path><path d="M319.58,406a.9.9,0,0,1,.08-.93.64.64,0,0,1,.52-.34c.95,0,2.47,1.91,2.64,2.14a.15.15,0,0,1,0,.18.17.17,0,0,1-.16.09,9.93,9.93,0,0,1-1.92-.35A2,2,0,0,1,319.58,406Zm.62-.93a.3.3,0,0,0-.25.17.6.6,0,0,0-.07.61c.22.42,1.11.76,2.43.91C321.67,406,320.71,405.08,320.2,405.11Z" style="fill:#407BFF"></path><path d="M322.56,407.12c-.55-.63-1.12-2.4-.71-3.1a.63.63,0,0,1,.74-.3.84.84,0,0,1,.61.44c.47.9-.32,2.83-.36,2.91a.16.16,0,0,1-.13.11h-.08Zm0-3.07c-.24-.05-.33.05-.38.13a3.47,3.47,0,0,0,.5,2.48,3.82,3.82,0,0,0,.26-2.34.53.53,0,0,0-.3-.25Z" style="fill:#407BFF"></path><path d="M351.68,228.69s-9.79,59-12.69,79.61c-3.18,22.54-15.66,88.48-15.66,88.48l12.8,3.53s18.28-63.89,23.46-85.81c5.62-23.78,18-85.81,18-85.81Z" style="fill:#fafafa;opacity:0.6000000000000001"></path><polygon points="336.45 400.57 322.74 396.79 323 391.21 338.44 396.54 336.45 400.57" style="fill:#407BFF"></polygon><path d="M367.4,252.9c-5,12.5-5.57,33.77-3.54,42.48,3.07-14.31,6.59-31.42,9.3-44.73C372.19,247.23,370.44,245.29,367.4,252.9Z" style="opacity:0.2"></path><path d="M359,178.62c-1,1-1.93,1.94-2.93,2.85s-2,1.79-3,2.66c-2,1.74-4.07,3.4-6.22,5s-4.32,3.12-6.6,4.55c-1.13.73-2.3,1.41-3.47,2.09l-1.79,1-.9.48-.33.18-.45.21a9.29,9.29,0,0,1-.92.37,10.3,10.3,0,0,1-3.83.56,11.51,11.51,0,0,1-3.28-.64,17.3,17.3,0,0,1-4.68-2.53,35.16,35.16,0,0,1-6.19-6.19,64.19,64.19,0,0,1-4.63-6.66,68,68,0,0,1-3.76-7.07l5.07-3.06A115.69,115.69,0,0,0,321,183.13a29.19,29.19,0,0,0,5.18,4,6.75,6.75,0,0,0,2.12.87.9.9,0,0,0,.47,0c.06,0,0,0-.08,0s0,0,0,0h0l.08-.06.75-.5c.49-.33,1-.65,1.48-1,1-.7,2-1.37,2.93-2.1,1.94-1.42,3.84-2.93,5.73-4.47s3.74-3.13,5.57-4.75c.92-.8,1.83-1.62,2.73-2.44l2.6-2.42Z" style="fill:#dc897c"></path><path d="M334.92,181.82l9.19,11s.54-.37,1.44-1c.66-.48,1.51-1.12,2.5-1.87,5.58-4.26,14.18-12.4,15.35-17.11,1.73-7-5.33-9.78-15.22-4.51-4.27,2.27-7.33,7-9.88,9.76-.85.91-1.56,1.72-2.12,2.34C335.38,181.27,334.92,181.82,334.92,181.82Z" style="fill:#263238"></path><polygon points="384.88 412.75 377.63 412.75 376.69 395.96 383.94 395.96 384.88 412.75" style="fill:#e4897b"></polygon><path d="M377.25,411.91h8.15a.51.51,0,0,1,.53.49l.4,6.45a1.3,1.3,0,0,1-1.27,1.29c-2.84-.05-4.19-.22-7.77-.22-2.21,0-11.58.23-14.62.23s-3-3-1.67-3.28c5.79-1.22,12.95-2.91,15-4.52A2,2,0,0,1,377.25,411.91Z" style="fill:#263238"></path><polygon points="383.94 395.96 376.69 395.96 377.18 404.62 384.43 404.62 383.94 395.96" style="opacity:0.2"></polygon><path d="M365.84,228.32s-.69,55.41.49,76.17c1.29,22.73,7.74,98,7.74,98h13.28s-.4-73.48.4-96c.87-24.43,3.12-78.23,3.12-78.23Z" style="fill:#407BFF"></path><path d="M373.32,412.79a.92.92,0,0,1-.21-.92.64.64,0,0,1,.39-.48c.89-.35,2.94,1.06,3.17,1.22a.18.18,0,0,1,.07.17.16.16,0,0,1-.13.13,9.1,9.1,0,0,1-1.93.26A2,2,0,0,1,373.32,412.79Zm.3-1.08a.26.26,0,0,0-.18.23.62.62,0,0,0,.12.61c.34.33,1.29.37,2.59.12C375.31,412.13,374.1,411.52,373.62,411.71Z" style="fill:#407BFF"></path><path d="M376.49,412.89c-.72-.43-1.81-1.94-1.64-2.73a.64.64,0,0,1,.61-.51.83.83,0,0,1,.72.23c.73.71.57,2.79.56,2.88a.17.17,0,0,1-.09.14h-.08A.11.11,0,0,1,376.49,412.89Zm-1-2.91c-.24,0-.3.15-.32.25-.11.52.61,1.67,1.24,2.2a3.83,3.83,0,0,0-.47-2.31.52.52,0,0,0-.37-.14Z" style="fill:#407BFF"></path><path d="M365.84,228.32s-.69,55.41.49,76.17c1.29,22.73,7.74,98,7.74,98h13.28s-.4-73.48.4-96c.87-24.43,3.12-78.23,3.12-78.23Z" style="fill:#fafafa;opacity:0.6000000000000001"></path><polygon points="387.88 402.53 373.53 402.53 372.74 397.49 388.57 398.27 387.88 402.53" style="fill:#407BFF"></polygon><path d="M363.28,173.6c-2.13-2.26-5,1.62-10.82,4.09-2.61,1.1-10,10.54-10.12,13l1.78,2.11S361.68,180.62,363.28,173.6Z" style="opacity:0.30000000000000004"></path><path d="M311.69,173.7l-2.49-8-6.48,4.75s3.54,7.1,5.94,6.46Z" style="fill:#e4897b"></path><polygon points="302.37 162.68 298.73 167.15 302.72 170.47 309.2 165.73 302.37 162.68" style="fill:#e4897b"></polygon><path d="M351.68,228.69h38.78c.27-3.46-.53-14.73.07-29.08A184.58,184.58,0,0,1,394.38,168c.18-.79.35-1.56.54-2.34,0,0-2-.4-4.78-.81-2.34-.34-5.27-.7-8.15-.83a141.47,141.47,0,0,0-16.48,0c-2.53.23-5,.65-7,1-2.52.51-4,1-4,1S345,187.92,351.68,228.69Z" style="fill:#263238"></path><path d="M390.53,199.62A184.57,184.57,0,0,1,394.38,168c-2.59-.22-7,0-7.75,4.22C385.83,176.7,386.83,187.29,390.53,199.62Z" style="opacity:0.30000000000000004"></path><path d="M398.36,171.93l.94,3.4c.34,1.17.7,2.34,1.08,3.5.74,2.32,1.56,4.61,2.43,6.86s1.85,4.4,2.89,6.49l.82,1.53.85,1.47c.28.51.6.95.9,1.41l.46.7c.12.18,0,.07,0,.07s-.08-.08-.14-.11a1.85,1.85,0,0,0-.93-.34c-.26,0-.25.08-.07.06a6,6,0,0,0,2.08-.77,35,35,0,0,0,5.54-3.91c3.72-3.09,7.38-6.71,10.9-10.27l4.77,3.51a79.27,79.27,0,0,1-4.36,6.79,75.65,75.65,0,0,1-5.09,6.38,38.81,38.81,0,0,1-6.47,5.92,16.43,16.43,0,0,1-5,2.43,9.88,9.88,0,0,1-3.92.31,8.91,8.91,0,0,1-4.43-1.92,9,9,0,0,1-.84-.78c-.23-.25-.54-.59-.6-.68l-.7-.86c-.45-.58-1-1.16-1.35-1.75l-1.26-1.79-1.13-1.83a63.23,63.23,0,0,1-3.89-7.47,82.33,82.33,0,0,1-3-7.71c-.42-1.3-.83-2.61-1.2-3.93s-.71-2.6-1-4.11Z" style="fill:#dc897c"></path><path d="M385.3,178.85a135.11,135.11,0,0,0,6.29,14.72c.51,1.08,1,2,1.38,2.81.69,1.36,1.12,2.18,1.12,2.18l14.69-8.14-.52-1.65c-.25-.78-.59-1.81-1-3-2.44-7-7.44-19.42-12.34-20.13C387.6,164.58,382.32,170.06,385.3,178.85Z" style="fill:#263238"></path><path d="M426.24,182.63l1.33-7.2,6.54,6.38s-2.33,6.16-5.4,4.7Z" style="fill:#e4897b"></path><polygon points="433.38 171.84 438.53 177.37 434.11 181.81 427.57 175.43 433.38 171.84" style="fill:#e4897b"></polygon><path d="M439,187.45h0a.37.37,0,0,1-.49-.17l-1-2a.36.36,0,0,1,.16-.49h0a.37.37,0,0,1,.49.17l1,2A.36.36,0,0,1,439,187.45Z" style="fill:#263238"></path><polygon points="439.07 186.18 438.01 186.71 435.39 184.15 438.6 182.55 439.07 186.18" style="fill:#407BFF"></polygon><polygon points="439.07 186.18 438.01 186.71 435.39 184.15 438.6 182.55 439.07 186.18" style="fill:#fafafa;opacity:0.5"></polygon><rect x="429.46" y="158.95" width="3.86" height="26.31" rx="0.27" transform="translate(-31.46 210.67) rotate(-26.51)" style="fill:#407BFF"></rect><path d="M427.37,159.72l11.5,23.05a.29.29,0,0,1-.13.37l-3,1.48a.27.27,0,0,1-.36-.13l-11.5-23.05a.28.28,0,0,1,.12-.37l3-1.47A.29.29,0,0,1,427.37,159.72Z" style="fill:#fafafa;opacity:0.6000000000000001"></path><path d="M436.51,180.77h0a.71.71,0,0,1-1-.32l-8-16a.73.73,0,0,1,.32-1h0a.73.73,0,0,1,1,.32l8,16A.72.72,0,0,1,436.51,180.77Z" style="fill:#407BFF"></path><path d="M427.37,159.72l.49,1-3.45,1.73-.5-1a.28.28,0,0,1,.12-.37l3-1.47A.29.29,0,0,1,427.37,159.72Z" style="fill:#263238"></path><path d="M383.86,164.5s-7.81,5.62-16.68,5.33S360,165,360,165s5-.56,5.92-2.79a4.09,4.09,0,0,0,.27-1.49,34.45,34.45,0,0,0-1.23-8l11.31-5.58v0c0,.72-2,11.32,1.63,14.92C379.38,163.61,383.86,164.5,383.86,164.5Z" style="fill:#e4897b"></path><path d="M376.22,147.13v0c-.16,4.8-3.73,12.11-10.08,13.52a34.45,34.45,0,0,0-1.23-8Z" style="opacity:0.2"></path><path d="M354.2,132.19S353,142.29,358.49,146s4.81-15,4.81-15Z" style="fill:#263238"></path><path d="M374.24,153.41a9.11,9.11,0,0,1-10.34,3.9,10.17,10.17,0,0,1-6-4.52c-.18-.3-.35-.62-.51-.95-2.84-6-4.05-16.75,2.3-21a9.88,9.88,0,0,1,15.35,6.92C376.13,144.91,377.08,149.06,374.24,153.41Z" style="fill:#e4897b"></path><path d="M364.76,142c.15.56-.09,1.1-.47,1.18s-.78-.33-.9-.9.09-1.11.47-1.18S364.63,141.38,364.76,142Z" style="fill:#263238"></path><path d="M358.24,143.31c.16.56-.09,1.1-.46,1.18s-.78-.33-.9-.91.09-1.1.46-1.18S358.13,142.76,358.24,143.31Z" style="fill:#263238"></path><path d="M360.37,143.16a21,21,0,0,1-1.73,5.5,3.43,3.43,0,0,0,2.87-.06Z" style="fill:#de5753"></path><path d="M355.31,141.12a.37.37,0,0,0,.35-.1,2.76,2.76,0,0,1,2.3-1,.35.35,0,1,0,.12-.68h0a3.42,3.42,0,0,0-2.92,1.16.35.35,0,0,0,0,.49h0A.29.29,0,0,0,355.31,141.12Z" style="fill:#263238"></path><path d="M365.5,139.1a.32.32,0,0,0,.18-.1.35.35,0,0,0-.13-.47h0a3.41,3.41,0,0,0-3.15-.18.34.34,0,0,0-.15.46h0a.36.36,0,0,0,.47.15h0a2.77,2.77,0,0,1,2.49.18A.33.33,0,0,0,365.5,139.1Z" style="fill:#263238"></path><path d="M368.07,130l-.41,1.45c2.48.4,2.44,3.21,2.16,4.52-.6,2.81,1.55,6.67,3.84,8,0,0-.12-1.16.89-1s1.68,6.13.25,9.28c0,0,2.44-3,3.07-9.55.57-6,0-10.88-1.55-12.94Z" style="fill:#263238"></path><path d="M379.37,142.92a6.89,6.89,0,0,1-3.15,4.2c-2.08,1.22-3.73-.5-3.67-2.79.08-2,1.23-5.17,3.57-5.42A3.06,3.06,0,0,1,379.37,142.92Z" style="fill:#e4897b"></path><path d="M362.25,150.76a22.79,22.79,0,0,1,2.19,2.24c.16-.09.32-.18.47-.28,2.13-1.3,2.69-2.61,2.66-3.67a3.26,3.26,0,0,0-.43-1.46,3.08,3.08,0,0,0-.51-.71,11.85,11.85,0,0,1-3.66,3.43C362.54,150.6,362.25,150.76,362.25,150.76Z" style="fill:#263238"></path><path d="M363,150.31l.66.64c2-1.23,3.25-2.37,3.51-3.36a3.08,3.08,0,0,0-.51-.71A11.85,11.85,0,0,1,363,150.31Z" style="fill:#fff"></path><path d="M364.91,152.72c2.13-1.3,2.69-2.61,2.66-3.67a8,8,0,0,0-2.08,1.92A3,3,0,0,0,364.91,152.72Z" style="fill:#de5753"></path><path d="M378,133.86s1.57-6.49-6.72-10-15.81,1.77-16.76,4.76c0,0-4.67,2.85-.43,7l2.43-3.77S364.79,138.63,378,133.86Z" style="fill:#263238"></path><rect x="356.89" y="183.8" width="22.13" height="14.15" style="fill:#fafafa;opacity:0.6000000000000001"></rect><rect x="356.89" y="180.27" width="22.13" height="3.52" style="fill:#407BFF"></rect><polygon points="360.05 183.8 358.3 183.8 356.89 180.28 358.64 180.28 360.05 183.8" style="opacity:0.30000000000000004"></polygon><polygon points="363.21 183.8 361.46 183.8 360.05 180.28 361.8 180.28 363.21 183.8" style="opacity:0.30000000000000004"></polygon><polygon points="366.37 183.8 364.62 183.8 363.21 180.28 364.96 180.28 366.37 183.8" style="opacity:0.30000000000000004"></polygon><polygon points="369.52 183.8 367.78 183.8 366.37 180.28 368.11 180.28 369.52 183.8" style="opacity:0.30000000000000004"></polygon><polygon points="372.68 183.8 370.94 183.8 369.52 180.28 371.27 180.28 372.68 183.8" style="opacity:0.30000000000000004"></polygon><polygon points="375.84 183.8 374.09 183.8 372.68 180.28 374.43 180.28 375.84 183.8" style="opacity:0.30000000000000004"></polygon><polygon points="379 183.8 377.25 183.8 375.84 180.28 377.59 180.28 379 183.8" style="opacity:0.30000000000000004"></polygon><path d="M361.16,192.66a.46.46,0,0,1-.41-.22c-.24-.39.11-1.12.75-2.39.33-.65.94-1.87.81-2.1-1.07,0-2.45,2.21-2.9,3a.25.25,0,1,1-.44-.24c.18-.33,1.79-3.24,3.27-3.29a.52.52,0,0,1,.49.22c.28.43-.12,1.27-.78,2.59a6,6,0,0,0-.77,1.92c.48,0,1.33-1,1.95-1.66.75-.83,1.18-1.26,1.54-1.23a.42.42,0,0,1,.33.2,4.66,4.66,0,0,1,.32.64.79.79,0,0,0,.43.52c.19.11.58-.12.95-.34a2.64,2.64,0,0,1,1.25-.51.74.74,0,0,1,.82.55c.07.18.09.25.32.26.63,0,5.26-.57,7-.81a.25.25,0,0,1,.28.21.24.24,0,0,1-.22.28c-.25,0-6.28.87-7.09.82a.78.78,0,0,1-.76-.58c-.07-.19-.1-.24-.33-.23a2.35,2.35,0,0,0-1,.43c-.5.3-1,.61-1.47.35a1.26,1.26,0,0,1-.64-.76,3.34,3.34,0,0,0-.25-.52,5.63,5.63,0,0,0-1.09,1.05C362.71,191.74,361.89,192.66,361.16,192.66Z" style="fill:#263238"></path></g><g id="freepik--Videotapes--inject-2"><rect x="74.06" y="390.14" width="243.89" height="30.01" style="fill:#263238"></rect><rect x="74.06" y="390.14" width="243.89" height="30.01" style="fill:#fafafa;opacity:0.2"></rect><rect x="74.06" y="390.14" width="66.61" height="30.01" style="opacity:0.2"></rect><rect x="74.06" y="390.14" width="17.14" height="30.01" style="opacity:0.30000000000000004"></rect><path d="M74,390.14H90.2a0,0,0,0,1,0,0v15.61a14.4,14.4,0,0,1-14.4,14.4H74a1,1,0,0,1-1-1V391.11A1,1,0,0,1,74,390.14Z" style="fill:#263238"></path><g style="opacity:0.2"><rect x="93.98" y="404.64" width="43.25" height="1"></rect></g><g style="opacity:0.2"><rect x="143.27" y="404.64" width="171.78" height="1"></rect></g><rect x="172.74" y="397.2" width="120.58" height="15.56" rx="2.29" style="fill:#263238"></rect><rect x="172.74" y="397.2" width="120.58" height="15.56" rx="2.29" style="fill:#fafafa;opacity:0.6000000000000001"></rect><path d="M181.49,397.2v15.56H175a2.29,2.29,0,0,1-2.29-2.29v-11A2.3,2.3,0,0,1,175,397.2Z" style="fill:#263238"></path><path d="M74,390.14H90.2a0,0,0,0,1,0,0v15.61a14.4,14.4,0,0,1-14.4,14.4H74a1,1,0,0,1-1-1V391.11A1,1,0,0,1,74,390.14Z" style="opacity:0.30000000000000004"></path><rect x="153.06" y="412.76" width="8.97" height="6.06" style="opacity:0.2"></rect><rect x="67.06" y="360.39" width="243.89" height="30.01" style="fill:#407BFF"></rect><rect x="67.06" y="360.39" width="66.61" height="30.01" style="opacity:0.2"></rect><rect x="67.06" y="360.39" width="17.14" height="30.01" style="opacity:0.30000000000000004"></rect><path d="M67,360.39H83.2a0,0,0,0,1,0,0V376a14.4,14.4,0,0,1-14.4,14.4H67a1,1,0,0,1-1-1V361.35A1,1,0,0,1,67,360.39Z" style="fill:#407BFF"></path><g style="opacity:0.2"><rect x="86.98" y="374.89" width="43.25" height="1"></rect></g><g style="opacity:0.2"><rect x="136.27" y="374.89" width="171.78" height="1"></rect></g><rect x="165.74" y="367.45" width="120.58" height="15.56" rx="2.29" style="fill:#407BFF"></rect><path d="M286.32,369.74v11A2.28,2.28,0,0,1,284,383H168a2.29,2.29,0,0,1-2.29-2.29v-11a2.3,2.3,0,0,1,2.29-2.29H284A2.29,2.29,0,0,1,286.32,369.74Z" style="fill:#fafafa;opacity:0.6000000000000001"></path><path d="M174.49,367.45V383H168a2.29,2.29,0,0,1-2.29-2.29v-11a2.3,2.3,0,0,1,2.29-2.29Z" style="fill:#263238"></path><path d="M67,360.39H83.2a0,0,0,0,1,0,0V376a14.4,14.4,0,0,1-14.4,14.4H67a1,1,0,0,1-1-1V361.35A1,1,0,0,1,67,360.39Z" style="opacity:0.30000000000000004"></path><rect x="146.06" y="383.01" width="8.97" height="6.06" style="opacity:0.2"></rect><rect x="74.06" y="330.63" width="243.89" height="30.01" style="fill:#407BFF"></rect><rect x="74.06" y="330.63" width="243.89" height="30.01" style="opacity:0.30000000000000004"></rect><rect x="74.06" y="330.63" width="66.61" height="30.01" style="opacity:0.2"></rect><rect x="74.06" y="330.63" width="17.14" height="30.01" style="opacity:0.30000000000000004"></rect><path d="M74,330.63H90.2a0,0,0,0,1,0,0v15.61a14.4,14.4,0,0,1-14.4,14.4H74a1,1,0,0,1-1-1V331.6a1,1,0,0,1,1-1Z" style="fill:#407BFF"></path><g style="opacity:0.2"><rect x="93.98" y="345.14" width="43.25" height="1"></rect></g><g style="opacity:0.2"><rect x="143.27" y="345.14" width="171.78" height="1"></rect></g><rect x="172.74" y="337.7" width="120.58" height="15.56" rx="2.29" style="fill:#407BFF"></rect><path d="M293.32,340v11a2.28,2.28,0,0,1-2.29,2.29H175a2.29,2.29,0,0,1-2.29-2.29V340A2.3,2.3,0,0,1,175,337.7H291A2.29,2.29,0,0,1,293.32,340Z" style="fill:#fafafa;opacity:0.6000000000000001"></path><path d="M181.49,337.7v15.56H175a2.29,2.29,0,0,1-2.29-2.29V340A2.3,2.3,0,0,1,175,337.7Z" style="fill:#407BFF"></path><path d="M74,330.63H90.2a0,0,0,0,1,0,0v15.61a14.4,14.4,0,0,1-14.4,14.4H74a1,1,0,0,1-1-1V331.6a1,1,0,0,1,1-1Z" style="opacity:0.30000000000000004"></path><rect x="153.06" y="353.26" width="8.97" height="6.06" style="opacity:0.2"></rect><polygon points="80.02 330.89 140.67 336.21 147.77 341.78 317.95 336.21 317.95 330.63 80.02 330.89" style="opacity:0.2"></polygon><rect x="80.06" y="300.88" width="243.89" height="30.01" style="fill:#263238"></rect><rect x="80.06" y="300.88" width="66.61" height="30.01" style="opacity:0.2"></rect><rect x="80.06" y="300.88" width="17.14" height="30.01" style="opacity:0.30000000000000004"></rect><path d="M80,300.88H96.2a0,0,0,0,1,0,0V316.5a14.4,14.4,0,0,1-14.4,14.4H80a1,1,0,0,1-1-1V301.85A1,1,0,0,1,80,300.88Z" style="fill:#263238"></path><g style="opacity:0.2"><rect x="99.98" y="315.39" width="43.25" height="1"></rect></g><g style="opacity:0.2"><rect x="149.27" y="315.39" width="171.78" height="1"></rect></g><rect x="178.75" y="307.95" width="120.58" height="15.56" rx="2.29" style="fill:#263238"></rect><path d="M299.32,310.24v11a2.28,2.28,0,0,1-2.29,2.29H181a2.29,2.29,0,0,1-2.29-2.29v-11A2.3,2.3,0,0,1,181,308H297A2.29,2.29,0,0,1,299.32,310.24Z" style="fill:#fafafa;opacity:0.6000000000000001"></path><path d="M187.49,308v15.56H181a2.29,2.29,0,0,1-2.29-2.29v-11A2.3,2.3,0,0,1,181,308Z" style="opacity:0.5"></path><path d="M80,300.88H96.2a0,0,0,0,1,0,0V316.5a14.4,14.4,0,0,1-14.4,14.4H80a1,1,0,0,1-1-1V301.85A1,1,0,0,1,80,300.88Z" style="opacity:0.30000000000000004"></path><rect x="159.06" y="323.51" width="8.97" height="6.06" style="opacity:0.2"></rect><path d="M288.39,195.11V178H115.71v17.14h-1a1.19,1.19,0,0,0-1.15,1.23v74.13a1.3,1.3,0,0,0,1.25,1.34H289.28a1.3,1.3,0,0,0,1.26-1.34V196.34a1.19,1.19,0,0,0-1.15-1.23Z" style="fill:#407BFF"></path><path d="M288.39,195.11V178H115.71v17.14h-1a1.19,1.19,0,0,0-1.15,1.23v74.13a1.3,1.3,0,0,0,1.25,1.34H289.28a1.3,1.3,0,0,0,1.26-1.34V196.34a1.19,1.19,0,0,0-1.15-1.23Z" style="opacity:0.2"></path><path d="M289.24,167.82H114.86a1.3,1.3,0,0,0-1.3,1.3v11.29a12.22,12.22,0,0,0,12.22,12.22H289.35a1.18,1.18,0,0,0,1.19-1.18V169.12A1.3,1.3,0,0,0,289.24,167.82Z" style="fill:#407BFF"></path><path d="M289.24,167.82H114.86a1.3,1.3,0,0,0-1.3,1.3v11.29a12.22,12.22,0,0,0,12.22,12.22H289.35a1.18,1.18,0,0,0,1.19-1.18V169.12A1.3,1.3,0,0,0,289.24,167.82Z" style="opacity:0.30000000000000004"></path><path d="M132,167.82H306.35a1.3,1.3,0,0,1,1.3,1.3v22.33a1.19,1.19,0,0,1-1.19,1.19H131.85a1.19,1.19,0,0,1-1.19-1.19V169.12A1.3,1.3,0,0,1,132,167.82Z" style="fill:#407BFF"></path><path d="M307.64,169.16v22.25a1.18,1.18,0,0,1-1.14,1.22H131.82a1.19,1.19,0,0,1-1.15-1.22V169.16a1.3,1.3,0,0,1,1.25-1.34H306.39A1.3,1.3,0,0,1,307.64,169.16Z" style="opacity:0.2"></path><path d="M307.64,191.28v.13a1.18,1.18,0,0,1-1.14,1.22H131.82a1.19,1.19,0,0,1-1.15-1.22v-.13h1.15V176.23H306.51v15.05Z" style="opacity:0.2"></path><path d="M305.5,195.11V178H132.82v17.14h-1a1.19,1.19,0,0,0-1.15,1.23v74.13a1.3,1.3,0,0,0,1.25,1.34H306.39a1.31,1.31,0,0,0,1.26-1.34V196.34a1.19,1.19,0,0,0-1.15-1.23Z" style="fill:#407BFF"></path><path d="M297,198.26l-.7-.75H142l-.7.75c-.33.34-8,8.71-8,25.59s7.59,26.39,7.92,26.8l.72.89h154.5l.72-.89c.32-.41,7.92-10.05,7.92-26.8S297.32,198.6,297,198.26Z" style="opacity:0.2"></path><path d="M176.14,200.08V249H143s-7.34-9.14-7.34-25.13a45.49,45.49,0,0,1,1.7-12.61c2.17-7.49,5.64-11.16,5.64-11.16Z" style="fill:#fafafa;opacity:0.30000000000000004"></path><path d="M167.59,200.69h8.55v47.63h-8.55c-12.33,0-22.31-10.67-22.31-23.81S155.26,200.69,167.59,200.69Z" style="fill:#263238"></path><g style="opacity:0.2"><path d="M167.59,200.69h8.55v47.63h-8.55c-12.33,0-22.31-10.67-22.31-23.81S155.26,200.69,167.59,200.69Z" style="fill:#fafafa"></path></g><path d="M176.14,200.69v47.63c-12.32,0-22.31-10.67-22.31-23.81S163.82,200.69,176.14,200.69Z" style="fill:#263238"></path><path d="M163.57,224.53c0,7.41,5.63,13.42,12.57,13.42V211.1C169.2,211.1,163.57,217.12,163.57,224.53ZM175.41,212c-.06.57-.11,1.15-.16,1.72a9.77,9.77,0,0,0-5.64,2.5l-1.25-1.1A11.42,11.42,0,0,1,175.41,212Zm-8.08,4.23c.33.45.68.89,1,1.33a11.12,11.12,0,0,0-2.34,6l-1.61.17A12.83,12.83,0,0,1,167.33,216.23Zm-2.92,9.08,1.61.16a11.12,11.12,0,0,0,2.34,6c-.35.44-.7.88-1,1.34A12.91,12.91,0,0,1,164.41,225.31Zm4,8.62c.42-.35.84-.73,1.25-1.09a9.76,9.76,0,0,0,5.65,2.49c0,.58.09,1.15.15,1.72A11.25,11.25,0,0,1,168.36,233.93Z" style="fill:#fff"></path><path d="M176.14,218.39v12.22a6.12,6.12,0,0,1,0-12.22Z" style="opacity:0.2"></path><g style="opacity:0.2"><path d="M166.77,243a.19.19,0,0,0-.27.08.21.21,0,0,0,.08.29,19.14,19.14,0,0,0,9.56,2.59v-.43A18.79,18.79,0,0,1,166.77,243Zm-3.36-2.46c-.4-.37-.8-.77-1.19-1.17a.18.18,0,0,0-.28,0,.22.22,0,0,0,0,.3c.38.42.8.82,1.22,1.2a.24.24,0,0,0,.13.05.21.21,0,0,0,.15-.08A.22.22,0,0,0,163.41,240.55Zm-6.91-14.29a.21.21,0,0,0-.22-.2.2.2,0,0,0-.17.23,21.89,21.89,0,0,0,.76,4.35.21.21,0,0,0,.19.15h.06a.21.21,0,0,0,.13-.26A22.62,22.62,0,0,1,156.5,226.26Zm2.22-12a.19.19,0,0,0-.27.09A22.55,22.55,0,0,0,156,224.51h0a.2.2,0,0,0,.2.21.21.21,0,0,0,.2-.22,22.16,22.16,0,0,1,2.37-10A.23.23,0,0,0,158.72,214.23Zm3.47-4.87a.18.18,0,0,0-.28,0c-.39.42-.77.85-1.12,1.3a.22.22,0,0,0,0,.31.19.19,0,0,0,.13.05.21.21,0,0,0,.15-.08c.35-.44.71-.87,1.1-1.28A.22.22,0,0,0,162.19,209.36ZM176.1,203a.19.19,0,0,0-.18.21.23.23,0,0,0,.22.22V203Zm-1.66.08a18.84,18.84,0,0,0-4.07.82.23.23,0,0,0-.14.27.21.21,0,0,0,.2.15h0a18.84,18.84,0,0,1,4-.81.21.21,0,0,0,.19-.23A.2.2,0,0,0,174.44,203.12Z" style="fill:#fafafa"></path></g><g style="opacity:0.2"><path d="M167.17,239.28a.19.19,0,0,0-.29.06.23.23,0,0,0,.06.3,16.08,16.08,0,0,0,9.2,2.9v-.42A15.68,15.68,0,0,1,167.17,239.28Zm-3-2.71a14.31,14.31,0,0,1-1-1.29.19.19,0,0,0-.28,0,.22.22,0,0,0,0,.3c.33.45.68.9,1.05,1.32a.22.22,0,0,0,.14.06.18.18,0,0,0,.14-.06A.22.22,0,0,0,164.14,236.57Zm-4.3-14.81a.21.21,0,0,0-.17-.24.21.21,0,0,0-.23.18,18.78,18.78,0,0,0-.2,2.81c0,.49,0,1,.06,1.5a.2.2,0,0,0,.2.2h0a.24.24,0,0,0,.19-.23c0-.49-.06-1-.06-1.47A17.9,17.9,0,0,1,159.84,221.76ZM165,211.23a.19.19,0,0,0-.28,0,18.3,18.3,0,0,0-4.94,8.78.21.21,0,0,0,.14.26H160a.2.2,0,0,0,.19-.16,17.76,17.76,0,0,1,4.83-8.57A.23.23,0,0,0,165,211.23Zm4.46-3.29c-.5.23-1,.49-1.46.76a.21.21,0,0,0-.07.29.18.18,0,0,0,.17.11l.1,0a12.83,12.83,0,0,1,1.42-.75.22.22,0,0,0,.1-.28A.19.19,0,0,0,169.45,207.94Z" style="fill:#fafafa"></path></g><path d="M176.14,248.32h-8.49a23.83,23.83,0,0,1-22.37-15.61l-7.91-21.47c2.17-7.49,5.64-11.16,5.64-11.16l11.45,33.21a21.76,21.76,0,0,0,17.65,14.48Z" style="fill:#263238"></path><path d="M302.64,223.85c0,16-7.34,25.13-7.34,25.13H262.17v-48.9H295.3S302.64,207.85,302.64,223.85Z" style="fill:#fafafa;opacity:0.30000000000000004"></path><path d="M302.65,223.85c0,16-7.35,25.13-7.35,25.13h-12s7.35-9.14,7.35-25.13-7.35-23.77-7.35-23.77h12S302.65,207.85,302.65,223.85Z" style="opacity:0.1"></path><path d="M262.17,242.33h.55a17,17,0,0,0,15.07-9.09l17.51-33.16h-7.92l-20.95,40Z" style="fill:#263238"></path><path d="M262.17,242.33h.55a17,17,0,0,0,15.07-9.09l17.51-33.16h-7.92l-20.95,40Z" style="fill:#fafafa;opacity:0.2"></path><path d="M278.87,224.51c0,9.82-7.49,17.82-16.7,17.82V206.67C271.38,206.67,278.87,214.67,278.87,224.51Z" style="fill:#263238"></path><path d="M262.17,211.1V238c6.94,0,12.58-6,12.58-13.42S269.11,211.1,262.17,211.1Zm11.73,12.65-1.61-.17a11.12,11.12,0,0,0-2.34-6c.35-.44.7-.88,1-1.33A12.83,12.83,0,0,1,273.9,223.75ZM270,215.12l-1.25,1.1a9.77,9.77,0,0,0-5.65-2.5c0-.57-.08-1.15-.15-1.72A11.39,11.39,0,0,1,270,215.12Zm-7.05,21.93c.06-.57.11-1.14.15-1.72a9.76,9.76,0,0,0,5.65-2.49c.41.36.83.74,1.25,1.09A11.23,11.23,0,0,1,262.9,237.05Zm8.08-4.21c-.33-.46-.68-.9-1-1.34a11.12,11.12,0,0,0,2.34-6l1.61-.16A12.91,12.91,0,0,1,271,232.84Z" style="fill:#fff"></path><path d="M267.9,224.51a5.92,5.92,0,0,1-5.73,6.1V218.39A5.93,5.93,0,0,1,267.9,224.51Z" style="opacity:0.2"></path><rect x="291.08" y="181.18" width="10.82" height="4.68" style="opacity:0.2"></rect><rect x="214.91" y="181.18" width="6.45" height="4.68" transform="translate(436.26 367.05) rotate(180)" style="opacity:0.2"></rect><rect x="182.7" y="200.41" width="72.92" height="48.23" rx="2.79" style="fill:#fafafa;opacity:0.6000000000000001"></rect><path d="M255.62,213.53V203.2a2.79,2.79,0,0,0-2.79-2.79H185.49a2.79,2.79,0,0,0-2.79,2.79v10.33Z" style="fill:#263238"></path><g style="opacity:0.2"><path d="M252.36,221.64H185.87a.25.25,0,0,1,0-.5h66.49a.25.25,0,0,1,0,.5Z"></path><path d="M252.36,230.56H185.87a.25.25,0,0,1,0-.5h66.49a.25.25,0,0,1,0,.5Z"></path><path d="M252.36,239.48H185.87a.25.25,0,0,1,0-.5h66.49a.25.25,0,0,1,0,.5Z"></path></g><g style="opacity:0.6000000000000001"><path d="M215.74,204.06l-3,7h-1.27l-3-7h1.4l2.32,5.37,2.33-5.37Z" style="fill:#fafafa"></path><path d="M222.65,204.06v7h-1.29v-3h-3.59v3h-1.3v-7h1.3v2.88h3.59v-2.88Z" style="fill:#fafafa"></path><path d="M223.93,210.28l.45-1a3.81,3.81,0,0,0,2.29.76c1.08,0,1.54-.38,1.54-.9,0-1.5-4.13-.52-4.13-3.1,0-1.12.89-2.07,2.8-2.07a4.35,4.35,0,0,1,2.31.61l-.4,1a3.94,3.94,0,0,0-1.92-.54c-1.07,0-1.51.42-1.51.94,0,1.48,4.12.52,4.12,3.07,0,1.11-.9,2.07-2.81,2.07A4.45,4.45,0,0,1,223.93,210.28Z" style="fill:#fafafa"></path></g><path d="M187,238.13h0a.51.51,0,0,1-.47-.52l.46-12.88a.48.48,0,0,1,.52-.48.5.5,0,0,1,.48.51l-.14,3.92c.56-2.43,1.32-4.52,2.3-5a1.32,1.32,0,0,1,1.77.58,4.43,4.43,0,0,1,.55,1.05c.08-.2.16-.39.24-.55.91-1.87,2-1.86,2.56-1.69,2.56.77,1.6,8.62,1,12.1.37-.31.75-.63,1.11-1-.5-2.21.89-5,2.31-5.55a1.29,1.29,0,0,1,1.66.76c.68,1.37-1.09,3.48-2.83,5.12a2,2,0,0,0,1,1.29,1.13,1.13,0,0,0,1.09-.27c.72-.57,1.38-3.64,1.61-5.63a.5.5,0,0,1,1,.08v0a1.82,1.82,0,0,1,1.11-.75,1.26,1.26,0,0,1,1.4.86,3.94,3.94,0,0,1,.23-.46c.7-1.23,1.52-1.38,2.09-1.28a1.89,1.89,0,0,1,1.3.82c.91,1.32.52,3.78.08,6a.43.43,0,0,1,0,.11,19.68,19.68,0,0,0,2-2.32,5,5,0,0,1,1.4-3.51,1.76,1.76,0,0,1,1-.52,2,2,0,0,1,2.11-1.18,2.75,2.75,0,0,1,2.14,1.56,5.88,5.88,0,0,0,2.58-.1l.06-.37c.13-.81.25-1.5.26-1.8a1,1,0,0,1,.64-1,1,1,0,0,1,1.1.49c.18.28.67,1.3-.61,2.84a2.45,2.45,0,0,1-.54.48,16.48,16.48,0,0,0-.31,4.44,14.17,14.17,0,0,0,.64-2.19c.51-2.07,1.13-4.64,2.54-5.85a1.59,1.59,0,0,1,1.93-.38c.9.52,1.16,2,1,3.1a2.94,2.94,0,0,1-.92,1.73c0,.17.05.35.08.52.09.69.2,1.55.5,1.75a.64.64,0,0,0,.44,0c1.4-.41,2.73-4.64,3.24-7.22a.5.5,0,0,1,.57-.4.51.51,0,0,1,.41.58c-.42,2.55-.51,5.1-.23,5.69a7.8,7.8,0,0,0,2.12-1.43,4.2,4.2,0,0,1,.68-3.76c1-1.39,2.58-2.42,3.66-1.75a1,1,0,0,1,.46,1c-.12,1.15-1.81,3.16-3.53,4.72a3.32,3.32,0,0,0,.53.53,2.3,2.3,0,0,0,2,.44c1.47-.34,3-1.95,4.22-3.63a2.28,2.28,0,0,1-1.37-1.64c-.08-.81.52-1.58,1.79-2.27.37-.2,1.49-.81,2.1-.22s.06,1.69-.11,2-.56,1.06-.93,1.66l.71.24a3.86,3.86,0,0,1,2,1.21c.38-.17.77-.33,1.17-.49,1.65-.67,3.21-1.3,4.08-2.76a2.73,2.73,0,0,0,.41-1.92.49.49,0,0,0-.34-.3.5.5,0,0,1-.35-.61.51.51,0,0,1,.62-.35,1.47,1.47,0,0,1,1,.89,3.63,3.63,0,0,1-.48,2.8c-1.05,1.75-2.84,2.48-4.57,3.18l-1.12.47a3.44,3.44,0,0,1,0,.42,3.64,3.64,0,0,1-2.69,3,1.56,1.56,0,0,1-1.85-.68,1.06,1.06,0,0,1-.07-.87c.3-.87,1.71-1.67,3.2-2.35a3.68,3.68,0,0,0-1.35-.69c-.36-.11-.68-.22-1-.34-1.28,1.85-3.05,3.74-4.91,4.18a3.25,3.25,0,0,1-2.84-.63,4,4,0,0,1-.69-.66,8.79,8.79,0,0,1-2.23,1.45,1,1,0,0,1-1.05-.12,2.85,2.85,0,0,1-.5-1.77c-.64,1.57-1.5,3-2.57,3.29a1.46,1.46,0,0,1-1.26-.13c-.68-.44-.81-1.42-.94-2.45l0-.18-.13,0a1.87,1.87,0,0,1-2-.64c-.17.62-.32,1.23-.46,1.79-.44,1.83-.68,2.73-1.25,3a.8.8,0,0,1-.66,0c-.91-.37-.92-2-.46-5.11a7,7,0,0,1-2,0,8.63,8.63,0,0,1,.2,1.46,4.52,4.52,0,0,1-1.15,3.51,3.56,3.56,0,0,1-2.69,1,3.41,3.41,0,0,1-3.15-2.07h0c-1,1.3-2.25,2.61-2.93,2.34-.19-.07-.5-.29-.4-.92,0-.18.08-.42.13-.72.27-1.34.83-4.13.07-5.22a.93.93,0,0,0-.63-.4.78.78,0,0,0-.72.31,6,6,0,0,0-1.06,2.47c.11,1.85-.1,4.22-.62,4.52a.55.55,0,0,1-.66-.12c-.32-.39-.18-2.59.29-4.55a3.3,3.3,0,0,0-.41-1.64c-.09-.12-.15-.11-.2-.1-.84.15-1.32,2.31-1.48,4.28L203,236a.47.47,0,0,1-.51.47.49.49,0,0,1-.49-.5c0-.15,0-.38,0-.68a2.92,2.92,0,0,1-.75,1.06,2.08,2.08,0,0,1-2,.43,2.72,2.72,0,0,1-1.48-1.52c-.82.71-1.54,1.27-1.88,1.52a.5.5,0,0,1-.56,0,.52.52,0,0,1-.23-.51c1-5.57,1.29-11.83-.11-12.26-.41-.11-.81.17-1.21.86a8.51,8.51,0,0,0-.77,2.09c.59,2.41.78,5.41.15,6.05a.67.67,0,0,1-.9.07c-1-.67-.85-3.7-.27-6.13a5.46,5.46,0,0,0-1-2.25c-.22-.23-.32-.18-.39-.14-1.4.72-2.64,8.11-3.08,13.13A.5.5,0,0,1,187,238.13Zm25.42-4.88a2.71,2.71,0,0,0,.18.65,2.39,2.39,0,0,0,2.27,1.45,2.5,2.5,0,0,0,1.93-.73,3.54,3.54,0,0,0,.86-2.75,7,7,0,0,0-.27-1.65l-.7-.11a14.78,14.78,0,0,0-2.24-.24c-.08.14-.16.3-.25.47a22,22,0,0,1-1.3,2.23C212.77,232.76,212.61,233,212.42,233.25Zm-12.27-3.71a.5.5,0,0,0-.13,0c-.72.26-1.82,2.05-1.74,3.77,1.43-1.42,2.5-2.84,2.17-3.5C200.34,229.6,200.24,229.54,200.15,229.54Zm45.09.62c-2.11,1-2.58,1.51-2.66,1.76s.18.38.73.25A2.73,2.73,0,0,0,245.24,230.16Zm-20.72-1a.32.32,0,0,0-.24.1.62.62,0,0,0-.14.68c.13.25.51.34,1.05.26l.12,0a1.41,1.41,0,0,0-.51-.93A.6.6,0,0,0,224.52,229.19Zm0-1a1.48,1.48,0,0,1,.77.22,2,2,0,0,1,.86,1.08,2.76,2.76,0,0,0,.21-.67,2.15,2.15,0,0,0-.47-2.05c-.23-.13-.55.07-.78.27a3.84,3.84,0,0,0-.88,1.19A1.45,1.45,0,0,1,224.51,228.18Zm12.61-2.7a3.23,3.23,0,0,0-2.07,1.53,3.56,3.56,0,0,0-.67,2.47,18.18,18.18,0,0,0,2.31-2.56c.75-1,.66-1.39.66-1.39A.52.52,0,0,0,237.12,225.48Zm-22,3.42c.48,0,1,.11,1.53.2a1.73,1.73,0,0,0-.86-.36A.73.73,0,0,0,215.13,228.9Zm6.84-1.56q0,.19-.06.45A1.2,1.2,0,0,0,222,227.34Zm21.41-2.94a2.48,2.48,0,0,0-.9.35c-.83.45-1.31.94-1.27,1.29,0,.13.13.48.92.91a18.32,18.32,0,0,0,1-1.69A2.18,2.18,0,0,0,243.38,224.4Z" style="fill:#263238"></path><g style="opacity:0.2"><rect x="121.11" y="197.51" width="1" height="72.07"></rect></g><rect x="74.06" y="271.13" width="243.89" height="30.01" style="fill:#263238"></rect><rect x="74.06" y="271.13" width="243.89" height="30.01" style="fill:#fafafa;opacity:0.2"></rect><rect x="74.06" y="271.13" width="66.61" height="30.01" style="opacity:0.2"></rect><rect x="74.06" y="271.13" width="17.14" height="30.01" style="opacity:0.2"></rect><path d="M74,271.13H90.2a0,0,0,0,1,0,0v15.61a14.4,14.4,0,0,1-14.4,14.4H74a1,1,0,0,1-1-1V272.1A1,1,0,0,1,74,271.13Z" style="fill:#263238"></path><g style="opacity:0.2"><rect x="93.98" y="285.64" width="43.25" height="1"></rect></g><g style="opacity:0.2"><rect x="143.27" y="285.64" width="171.78" height="1"></rect></g><rect x="172.74" y="278.2" width="120.58" height="15.56" rx="2.29" style="fill:#263238"></rect><path d="M293.32,280.48v11a2.28,2.28,0,0,1-2.29,2.29H175a2.29,2.29,0,0,1-2.29-2.29v-11a2.3,2.3,0,0,1,2.29-2.29H291A2.29,2.29,0,0,1,293.32,280.48Z" style="fill:#fafafa;opacity:0.6000000000000001"></path><path d="M181.49,278.19v15.56H175a2.29,2.29,0,0,1-2.29-2.29v-11a2.3,2.3,0,0,1,2.29-2.29Z" style="fill:#407BFF"></path><rect x="153.06" y="293.76" width="8.97" height="6.06" style="opacity:0.2"></rect><polygon points="74.02 360.64 133.67 367.45 143.27 371.98 310.94 360.39 74.02 360.64" style="opacity:0.2"></polygon><path d="M252.17,292.73a.71.71,0,0,1-.45-.14.72.72,0,0,1-.31-.76c.13-.69,1.5-1.84,3.24-3a23.05,23.05,0,0,0,2.22-4c-.28.38-.61.92-.85,1.31-.81,1.34-1.35,2.17-2,2.29a.87.87,0,0,1-.69-.18,4.85,4.85,0,0,1-1.13-3c-2.16,2.25-5.86,5.84-7.2,5.44-.69-.2-.91-1.48-.63-3.83-.75,1.52-1.62,2.71-2.54,2.88a1.61,1.61,0,0,1-1.65-.82,13.15,13.15,0,0,0-2.42-2.58,1.44,1.44,0,0,1-1.47-.32c-.33-.32-.65-.7-.53-1.1a.6.6,0,0,1,.48-.41,2.78,2.78,0,0,1,1.65.67c.76-.52,1.31-1.55,1.16-2s-.77-.24-1-.22c-2.08.24-3.57,2.92-4.56,4.69-.71,1.28-1.1,2-1.75,1.83s-.6-.89-.61-1.17a15.26,15.26,0,0,1,.25-2.52c-1.73,1.65-4.23,3.54-5.53,3.08a2.4,2.4,0,0,1-1.27-1.95,5.35,5.35,0,0,1-2.29,1.18,2.28,2.28,0,0,1-2.28-.76,2,2,0,0,1-.48-1.89,2.42,2.42,0,0,1,.58-1c-1.29.34-2.55.67-3.7,1l-.09.13a5.8,5.8,0,0,1-5.9,2.09.73.73,0,0,1-.54-.32,31.87,31.87,0,0,0-1.23,4.9.5.5,0,0,1-1-.15L209.22,281a.5.5,0,0,1,1,.14l-.57,4.06c1.05-2.41,2.55-4.53,4.6-4.63a2.6,2.6,0,0,1,2.59,1.28,3.13,3.13,0,0,1,.16,2.42c1.76-.48,3.94-1,6.65-1.7a.49.49,0,0,1,.6.35.5.5,0,0,1-.34.61c-1.17.35-3.12,1.25-3.41,2.2a1,1,0,0,0,.29,1,1.27,1.27,0,0,0,1.32.42,5.1,5.1,0,0,0,2.37-1.43c0-.53,0-2.67,1-3a.83.83,0,0,1,.94.27,1.37,1.37,0,0,1,.17,1.44,5.28,5.28,0,0,1-1.08,1.7,6,6,0,0,0,.1.74c.12.62.35,1,.6,1.13s.79-.06,1.75-.66a18.65,18.65,0,0,0,3.84-3.31c.25-.94.58-1.7,1-1.83a.61.61,0,0,1,.7.24c.35.5-.07,1.18-.48,1.72l-.29.36a20.34,20.34,0,0,0-.54,3.59c.16-.26.34-.59.5-.88,1.08-1.95,2.72-4.9,5.32-5.19,1.44-.15,1.89.48,2,.88.33.92-.38,2.19-1.29,2.93a15.2,15.2,0,0,1,2.3,2.53c.34.48.57.43.65.42,1.35-.25,3.25-5.46,4.18-9.11v-.05a.51.51,0,0,1,.61-.36.5.5,0,0,1,.36.61v0c-1.06,4.17-1.9,9-1.47,9.84.86-.07,4.22-3.1,6.92-6a.51.51,0,0,1,.55-.13.51.51,0,0,1,.32.46c0,1.1.26,2.81.78,3.33a8.5,8.5,0,0,0,1.29-1.8c.86-1.41,1.53-2.54,2.4-2.18a.71.71,0,0,1,.43.65,9.08,9.08,0,0,1-1.42,3.55A27.54,27.54,0,0,1,262,285a.52.52,0,0,1,.61.38.51.51,0,0,1-.38.6,30.33,30.33,0,0,0-6.92,3.63,10.83,10.83,0,0,1-2.59,3A1.22,1.22,0,0,1,252.17,292.73Zm-37.71-6.66c-1,.29-1.81.55-2.45.77A4.7,4.7,0,0,0,214.46,286.07Zm0-4.47h-.14c-1.78.08-3.17,2.42-4.13,5,.57-.37,2-1,5.61-2a2.49,2.49,0,0,0,.18-2.29A1.6,1.6,0,0,0,214.43,281.6ZM236.7,285Z" style="fill:#263238"></path><path d="M243.82,282.74a4.29,4.29,0,0,1-.8-.06.5.5,0,0,1,.23-1s1.69.32,6.6-1.08a.51.51,0,0,1,.62.35.5.5,0,0,1-.35.61A24.07,24.07,0,0,1,243.82,282.74Z" style="fill:#263238"></path><path d="M244.83,322.4a1.28,1.28,0,0,1-1.2-.49.83.83,0,0,1,.1-1c.54-.77,2.07-1.34,4.53-2.16l0-.05c-.44-.68-1.8-1.18-3.74-1.36a1.72,1.72,0,0,1-1.11-.48,18.43,18.43,0,0,1-3.43,2c-.59.24-1.43.5-1.94.05a8.09,8.09,0,0,1-1.49-3.45c-.37,1.85-1.16,3.83-2.81,4.22a1.87,1.87,0,0,1-2.05-.82,3.8,3.8,0,0,1-.55-1.22,8.5,8.5,0,0,1-2,2c-.82.52-1.36.36-1.66.14-.83-.6-1.1-2.29-1.44-5-.18-1.37-.47-3.66-.88-3.88-.53.34-1.14,4.25-1.38,5.72-.31,1.95-.34,2.16-.78,2.23a.57.57,0,0,1-.56-.3,7.72,7.72,0,0,1-.29-1.66c-.2-1.6-.68-5.35-1.48-5.94-.78.18-1.63,4.71-1.89,9.65a.5.5,0,0,1-1,0l-1.06-10.15a.52.52,0,0,1,.45-.55.5.5,0,0,1,.55.45l.53,5.1c.39-2.75,1.06-5.37,2.19-5.55a1.11,1.11,0,0,1,.83.23c.89.67,1.34,2.78,1.69,5.26.44-2.64.91-4.76,1.71-5.33a.91.91,0,0,1,.69-.16c1,.19,1.3,1.84,1.67,4.74.21,1.66.5,3.93,1,4.32.06.05.27,0,.59-.21a8.82,8.82,0,0,0,2.2-2.47,5.09,5.09,0,0,1,.49-2.84.94.94,0,0,1,1-.5.8.8,0,0,1,.63.66,5.24,5.24,0,0,1-1.1,2.95,4.82,4.82,0,0,0,.36,1.39c.44,1,1,.86,1.22.81,2-.47,2.38-4.95,2.38-6.64a.51.51,0,0,1,.47-.5.52.52,0,0,1,.53.43c.29,2,1,5.48,1.81,6.16h.05a4.28,4.28,0,0,0,1.8-.68,22.65,22.65,0,0,0,2.51-1.61,5,5,0,0,1,2-3.14c.91-.71,1.49-.62,1.82-.43a.7.7,0,0,1,.34.69c0,.71-1.37,2-2.95,3.24a1.18,1.18,0,0,0,.38.09c1.61.16,3.7.6,4.48,1.83a1.3,1.3,0,0,1,.14.26,20,20,0,0,0,4.15-1.74,24.38,24.38,0,0,0,2.13-1.57,5.69,5.69,0,0,1,1-2.44.73.73,0,0,1,1.06,0,1.12,1.12,0,0,1,.32.9c0,.25-.09.86-1.47,2.09a9.51,9.51,0,0,0-.17,1.24,3.5,3.5,0,0,0,.28,2.25,4.25,4.25,0,0,0,1.76-.56,35.06,35.06,0,0,0,4.91-2.95,4.61,4.61,0,0,1,.85-1.87c1-1.39,2.83-2.52,3.72-2a.66.66,0,0,1,.3.65c-.09.7-1.84,2.22-3.95,3.73a3,3,0,0,0,1.2,2.39,3,3,0,0,0,2.63.91c1.72-.38,2.78-2.69,2.79-2.71a.5.5,0,1,1,.91.41c-.05.11-1.28,2.79-3.49,3.28a4,4,0,0,1-3.49-1.13,4.24,4.24,0,0,1-1.5-2.49,26.39,26.39,0,0,1-5.64,3.11c-.54.17-1.31.34-1.74-.14a4.54,4.54,0,0,1-.53-3.22c-.38.28-.82.59-1.33.93a21.51,21.51,0,0,1-4.54,1.91,2.82,2.82,0,0,1-.14.61c-.49,1.37-2.64,2.16-4,2.29Zm-.15-1a5.06,5.06,0,0,0,1.88-.35,3.06,3.06,0,0,0,1.68-1.18A13.75,13.75,0,0,0,244.68,321.39Zm1.25-8a4.37,4.37,0,0,0-1,.91c-.13.16-.25.31-.35.46A11.28,11.28,0,0,0,245.93,313.37Zm20.78-.54a5.14,5.14,0,0,0-1.95,1.68A19.34,19.34,0,0,0,266.71,312.83Z" style="fill:#263238"></path><path d="M255.88,311.59c-.22,0-.8,0-1-.46a.65.65,0,0,1,.23-.75,2.44,2.44,0,0,1,2.3-.41.68.68,0,0,1,.44.73c0,.22-.12.66-1.93.88Z" style="fill:#263238"></path><path d="M231.79,411.06a1.27,1.27,0,0,1-1.2-.49.84.84,0,0,1,.11-.95c.53-.77,2.07-1.33,4.52-2.16l0,0c-.43-.69-1.79-1.19-3.73-1.37a1.68,1.68,0,0,1-1.12-.48,17.81,17.81,0,0,1-3.43,2c-.58.24-1.43.5-1.94.05a8,8,0,0,1-1.48-3.45c-.38,1.85-1.16,3.83-2.82,4.22a1.86,1.86,0,0,1-2-.82,4.07,4.07,0,0,1-.54-1.21,8.64,8.64,0,0,1-2,1.94,1.41,1.41,0,0,1-1.67.14c-.82-.6-1.09-2.29-1.44-5-.17-1.37-.46-3.66-.87-3.88-.53.34-1.15,4.25-1.38,5.72-.31,2-.34,2.16-.79,2.23a.56.56,0,0,1-.55-.29,7.36,7.36,0,0,1-.29-1.67c-.21-1.6-.69-5.35-1.48-5.94-.78.18-1.64,4.71-1.9,9.65a.49.49,0,0,1-.49.47.47.47,0,0,1-.51-.45l-1-10.15a.5.5,0,0,1,.44-.55.49.49,0,0,1,.55.45l.53,5.1c.39-2.75,1.06-5.37,2.2-5.54a1.06,1.06,0,0,1,.83.22c.89.67,1.34,2.78,1.69,5.26.44-2.64.91-4.76,1.71-5.33a.88.88,0,0,1,.68-.16c1,.2,1.31,1.84,1.67,4.74.21,1.66.5,3.93,1,4.32.07.05.28,0,.59-.21a9,9,0,0,0,2.21-2.47,5.1,5.1,0,0,1,.48-2.84,1,1,0,0,1,1-.5.81.81,0,0,1,.63.66,5.32,5.32,0,0,1-1.1,2.95,4.52,4.52,0,0,0,.36,1.39c.44,1,1,.86,1.21.81,2-.47,2.39-4.95,2.39-6.64a.5.5,0,0,1,.46-.5.52.52,0,0,1,.53.43c.3,2,1.05,5.48,1.82,6.16h.05a4.26,4.26,0,0,0,1.79-.68A20.6,20.6,0,0,0,230,404.6a5,5,0,0,1,2-3.14c.92-.71,1.5-.62,1.83-.43a.74.74,0,0,1,.34.69c-.06.71-1.38,2-3,3.24a1.24,1.24,0,0,0,.38.09c1.62.16,3.7.6,4.49,1.83a2.15,2.15,0,0,1,.14.26,20.47,20.47,0,0,0,4.15-1.74,24,24,0,0,0,2.12-1.57,5.68,5.68,0,0,1,1-2.44.73.73,0,0,1,1.06,0,1.08,1.08,0,0,1,.31.9c0,.25-.08.86-1.47,2.09-.07.39-.13.81-.17,1.25a3.43,3.43,0,0,0,.29,2.24,4.24,4.24,0,0,0,1.75-.56,34.12,34.12,0,0,0,4.91-3,4.69,4.69,0,0,1,.86-1.87c1-1.38,2.82-2.51,3.71-2a.63.63,0,0,1,.3.65c-.09.7-1.83,2.23-3.94,3.73a2.91,2.91,0,0,0,1.2,2.39,3,3,0,0,0,2.62.91c1.72-.38,2.78-2.69,2.8-2.71a.49.49,0,0,1,.66-.25.5.5,0,0,1,.25.66c-.05.11-1.28,2.79-3.49,3.28a4,4,0,0,1-3.49-1.13,4.15,4.15,0,0,1-1.5-2.48,27.35,27.35,0,0,1-5.64,3.11c-.54.16-1.31.33-1.74-.15a4.49,4.49,0,0,1-.53-3.22c-.38.28-.82.59-1.33.93a21.61,21.61,0,0,1-4.55,1.91,2.33,2.33,0,0,1-.14.61c-.48,1.37-2.64,2.16-4,2.29Zm-.15-1a5.4,5.4,0,0,0,1.89-.36,3.1,3.1,0,0,0,1.68-1.18A13.31,13.31,0,0,0,231.64,410.06Zm1.26-8a4.07,4.07,0,0,0-1.05.92,4.43,4.43,0,0,0-.34.45A12,12,0,0,0,232.9,402Zm20.77-.54a5.22,5.22,0,0,0-1.95,1.68A18.27,18.27,0,0,0,253.67,401.49Z" style="fill:#263238"></path><path d="M242.84,400.25c-.22,0-.8,0-1-.46a.65.65,0,0,1,.23-.75,2.42,2.42,0,0,1,2.29-.41c.47.25.47.59.44.73s-.12.66-1.92.89Z" style="fill:#263238"></path><path d="M262.35,409.88a.5.5,0,0,1-.5-.5v-9.09a.5.5,0,0,1,1,0v9.09A.5.5,0,0,1,262.35,409.88Z" style="fill:#263238"></path><path d="M265.91,409.88h0a.5.5,0,0,1-.48-.52c.13-2.95,0-9.91,0-10a.5.5,0,0,1,.49-.51.51.51,0,0,1,.51.49c0,.07.13,7.06,0,10.05A.5.5,0,0,1,265.91,409.88Z" style="fill:#263238"></path><path d="M259.84,400.79a.51.51,0,0,1-.49-.41.5.5,0,0,1,.4-.59c.24,0,5.93-1.08,9.15-.53a.5.5,0,0,1,.41.57.51.51,0,0,1-.58.41c-3-.51-8.74.53-8.79.54Z" style="fill:#263238"></path><path d="M269.34,409h-9.49a.5.5,0,0,1,0-1h9.49a.5.5,0,0,1,0,1Z" style="fill:#263238"></path><path d="M208.19,380h-.06a.51.51,0,0,1-.42-.34l-3-9.23a.5.5,0,0,1,.95-.32l2.69,8.2,5-8.3a.5.5,0,0,1,.68-.17.49.49,0,0,1,.17.69l-5.53,9.23A.52.52,0,0,1,208.19,380Z" style="fill:#263238"></path><path d="M217.42,379a.5.5,0,0,1-.5-.46,50.75,50.75,0,0,1,0-8.4.52.52,0,0,1,.55-.45.51.51,0,0,1,.45.55,48.47,48.47,0,0,0,0,8.21.51.51,0,0,1-.46.55Z" style="fill:#263238"></path><path d="M222.82,380a.5.5,0,0,1-.36-.16.51.51,0,0,1-.1-.53c.87-2.12.77-6.26.68-8.09a5.05,5.05,0,0,0-.66.27.5.5,0,1,1-.43-.91c.05,0,.45-.21,1-.41a.52.52,0,0,1,.45-.4.51.51,0,0,1,.4.15,6,6,0,0,1,4,.11,3.43,3.43,0,0,1,1.78,2.51c1,4.87-6.35,7.33-6.66,7.44Zm1.21-9.1a30,30,0,0,1-.41,7.75c1.84-.79,5.66-2.84,5-5.91a2.39,2.39,0,0,0-1.25-1.81A5.09,5.09,0,0,0,224,370.85Z" style="fill:#263238"></path><path d="M233.9,380.48a.55.55,0,0,1-.33-.12.53.53,0,0,1-.17-.36c-.13-2.62,0-9.5,0-9.79a.51.51,0,0,1,.5-.49h0a.49.49,0,0,1,.49.51c0,.07-.11,6.3,0,9.2l5.28-.48a.5.5,0,0,1,.09,1l-5.8.53Z" style="fill:#263238"></path><path d="M233.16,371.48a.5.5,0,0,1-.06-1l6.55-.77a.5.5,0,0,1,.11,1l-6.54.76Z" style="fill:#263238"></path><path d="M237.73,375.6h-5.15a.5.5,0,0,1,0-1h5.15a.5.5,0,1,1,0,1Z" style="fill:#263238"></path><path d="M246,379.05a2.89,2.89,0,0,1-2.66-1.21c-.91-1.44-.23-3.68.7-5.29.83-1.41,2.16-2.91,3.51-2.83a.49.49,0,0,1,.47.52.48.48,0,0,1-.52.48c-.72,0-1.78.95-2.59,2.34-1,1.68-1.27,3.38-.73,4.25.37.57,1.13.82,2.27.72a4.28,4.28,0,0,0,3.9-2.69,3.59,3.59,0,0,0-.31-3.52,1.28,1.28,0,0,0-1.37-.36.49.49,0,0,1-.62-.34.5.5,0,0,1,.34-.62,2.25,2.25,0,0,1,2.39.65,4.53,4.53,0,0,1,.5,4.55,5.34,5.34,0,0,1-4.75,3.33Z" style="fill:#263238"></path><path d="M226.3,351.39l-.48,0a3.38,3.38,0,0,1-3-2.3v0c-1.12,1.22-2.45,2.43-3.12,2.1-.18-.09-.46-.33-.32-.95l.19-.7c.38-1.32,1.15-4.05.49-5.2a.92.92,0,0,0-.6-.45.75.75,0,0,0-.74.25,5.84,5.84,0,0,0-1.25,2.37c0,1.86-.44,4.2-1,4.46a.56.56,0,0,1-.65-.17c-.29-.41,0-2.6.65-4.51a3.24,3.24,0,0,0-.28-1.67c-.08-.13-.14-.13-.19-.12-.84.09-1.5,2.2-1.82,4.15l-.18,1.43a.49.49,0,0,1-.54.43.49.49,0,0,1-.45-.53c0-.15,0-.39.07-.68a2.85,2.85,0,0,1-.83,1,2.13,2.13,0,0,1-2.07.26,2.71,2.71,0,0,1-1.35-1.64c-.88.65-1.64,1.15-2,1.37a.51.51,0,0,1-.58,0,.52.52,0,0,1-.17-.55c.53-1.64,1.65-6.5-.13-7.2-.95-.37-1.72.63-2.09,1.26l-.15.28c.4,1.67.36,3.77-.24,4.3a.72.72,0,0,1-1,0c-.9-.74-.54-2.84.16-4.39a3.06,3.06,0,0,0-.48-1c-.27-.34-.47-.29-.64-.22-1.52.64-2.72,5.14-3.12,7.83a.5.5,0,0,1-.54.42.49.49,0,0,1-.45-.52l.49-7.81a.5.5,0,0,1,.53-.47.51.51,0,0,1,.47.53l-.15,2.4c.58-1.52,1.36-2.87,2.38-3.3a1.53,1.53,0,0,1,2,.76,2.54,2.54,0,0,1,.16.28c.86-1.22,1.94-1.67,3-1.25,2.28.9,1.63,5,1.09,7.12.39-.26.77-.55,1.16-.84-.33-2.24,1.29-5,2.73-5.35a1.29,1.29,0,0,1,1.6.89c.57,1.42-1.36,3.39-3.23,4.88a2,2,0,0,0,.92,1.37,1.15,1.15,0,0,0,1.11-.19c.77-.5,1.66-3.51,2.06-5.48a.5.5,0,0,1,1,.16v0a1.78,1.78,0,0,1,1.16-.66,1.24,1.24,0,0,1,1.33,1c.09-.16.17-.3.26-.44.81-1.17,1.64-1.25,2.19-1.11a1.89,1.89,0,0,1,1.23.92c.8,1.4.22,3.82-.39,6l0,.11a20.37,20.37,0,0,0,2.14-2.15,5,5,0,0,1,1.68-3.39,1.84,1.84,0,0,1,1.08-.44,2,2,0,0,1,2.2-1,2.77,2.77,0,0,1,2,1.73,5.8,5.8,0,0,0,2.59.11l.09-.37c.19-.79.36-1.47.39-1.77a1,1,0,0,1,.73-.92,1,1,0,0,1,1.05.57c.15.29.56,1.35-.84,2.78a2.18,2.18,0,0,1-.57.44,16,16,0,0,0-.66,4.41,16.09,16.09,0,0,0,.81-2.14c.67-2,1.5-4.54,3-5.63a1.6,1.6,0,0,1,2-.22c.86.59,1,2.07.71,3.17a3,3,0,0,1-1,1.64l0,.53c0,.7.08,1.56.36,1.78a.54.54,0,0,0,.44,0c1.43-.29,3.09-4.41,3.8-6.94a.5.5,0,0,1,1,.26c-.62,2.51-.92,5-.69,5.65a7.19,7.19,0,0,0,2.23-1.25,4.2,4.2,0,0,1,1-3.7c1.06-1.3,2.76-2.2,3.79-1.45a1,1,0,0,1,.37,1.06c-.21,1.13-2.06,3-3.89,4.42a2.77,2.77,0,0,0,.49.56,2.26,2.26,0,0,0,2,.61c1.5-.23,3.17-1.7,4.5-3.28a2.27,2.27,0,0,1-1.23-1.74c0-.82.64-1.54,2-2.12.38-.17,1.54-.69,2.11-.05s-.08,1.68-.28,2-.64,1-1.06,1.58l.69.29a4,4,0,0,1,1.92,1.37,9,9,0,0,0,2.88-1.69.5.5,0,0,1,.71,0,.49.49,0,0,1,0,.7,9.74,9.74,0,0,1-3.24,1.92,1.9,1.9,0,0,1,0,.42,3.63,3.63,0,0,1-2.92,2.78,1.55,1.55,0,0,1-1.78-.83,1,1,0,0,1,0-.86c.36-.86,1.84-1.53,3.38-2.1a3.62,3.62,0,0,0-1.29-.79q-.53-.21-1-.42c-1.42,1.74-3.33,3.48-5.23,3.77a3.26,3.26,0,0,1-2.78-.85,4.17,4.17,0,0,1-.63-.72,8.8,8.8,0,0,1-2.34,1.27,1,1,0,0,1-1-.2,2.91,2.91,0,0,1-.35-1.8c-.77,1.5-1.74,2.85-2.83,3.07a1.5,1.5,0,0,1-1.25-.23c-.63-.5-.69-1.48-.74-2.52,0-.06,0-.12,0-.18h-.13a1.86,1.86,0,0,1-1.95-.8c-.23.6-.42,1.2-.6,1.74-.59,1.8-.91,2.67-1.5,2.92a.77.77,0,0,1-.66,0c-.87-.44-.76-2-.05-5.13a6.8,6.8,0,0,1-2-.11,8.37,8.37,0,0,1,.08,1.47,4.48,4.48,0,0,1-1.42,3.4A3.44,3.44,0,0,1,226.3,351.39Zm-2.62-3.3a2.37,2.37,0,0,0,2.27,2.28,2.47,2.47,0,0,0,2-.57,3.53,3.53,0,0,0,1.08-2.67,6.66,6.66,0,0,0-.14-1.67l-.69-.16a14.87,14.87,0,0,0-2.21-.42c-.09.14-.18.29-.29.45a21.53,21.53,0,0,1-1.47,2.12Zm32.95-.46c-2.18.8-2.68,1.3-2.79,1.54s.16.4.72.31A2.7,2.7,0,0,0,256.63,347.63Zm-44.91-4.22-.1,0c-.75.2-2,1.89-2.05,3.61,1.54-1.3,2.73-2.63,2.45-3.31C211.92,343.47,211.81,343.41,211.72,343.41ZM236,345a.32.32,0,0,0-.22.09.62.62,0,0,0-.19.66c.11.26.48.39,1,.34h.12a1.42,1.42,0,0,0-.43-1A.61.61,0,0,0,236,345Zm12.83-2.69a3.35,3.35,0,0,0-2.12,1.37,3.52,3.52,0,0,0-.87,2.4,17.7,17.7,0,0,0,2.5-2.36c.84-1,.78-1.33.77-1.33A.47.47,0,0,0,248.86,342.31ZM236,344a1.54,1.54,0,0,1,.86.28,1.94,1.94,0,0,1,.76,1.15,2.31,2.31,0,0,0,.27-.65,2.19,2.19,0,0,0-.3-2.08c-.23-.16-.56,0-.81.2a4.12,4.12,0,0,0-1,1.11Zm-9.3,0c.47.08,1,.2,1.51.33a1.83,1.83,0,0,0-.83-.43A.74.74,0,0,0,226.73,344Zm28.52-2.21a2.38,2.38,0,0,0-.93.27c-.86.39-1.38.83-1.37,1.19,0,.12.09.48.85,1a16.34,16.34,0,0,0,1.09-1.6A2.79,2.79,0,0,0,255.25,341.75ZM233.66,343c0,.13,0,.28-.09.44A.94.94,0,0,0,233.66,343Z" style="fill:#263238"></path><path d="M265.09,350.66a.5.5,0,0,1-.44-.21c-.25-.41.1-.66.41-.87,6.78-4.61,7-6.9,6.84-7.68s-1-1.25-2.31-1.1c-2,.26-3.95,1.65-3.95,2.08a.5.5,0,0,1-.31.63.51.51,0,0,1-.64-.31,1.3,1.3,0,0,1,.42-1.33c1-1.13,3.9-2.49,5.94-2a2.35,2.35,0,0,1,1.82,1.78c.51,2-1.45,4.56-5.82,7.76l.92,0c1.82-.07,4.56-.17,5.28-.78a.49.49,0,0,1,.7.05.51.51,0,0,1-.05.71c-.91.77-3.11.91-5.89,1a14.13,14.13,0,0,0-2.63.22A.59.59,0,0,1,265.09,350.66Z" style="fill:#263238"></path></g></svg>